<svg xmlns="http://www.w3.org/2000/svg" viewBox="0 0 280 200" fill="none">
  <!-- Cloud shape -->
  <path d="M210 130 Q240 130 240 105 Q240 82 218 80 Q215 55 190 55 Q178 40 158 45 Q145 30 125 35 Q100 35 95 58 Q72 60 70 82 Q55 85 55 105 Q55 130 85 130Z"
    stroke="currentColor" stroke-width="2" opacity="0.4" fill="currentColor" fill-opacity="0.06"/>
  <!-- Upload arrow -->
  <line x1="140" y1="160" x2="140" y2="90" stroke="currentColor" stroke-width="2.5" opacity="0.5" stroke-linecap="round"/>
  <path d="M120 108 L140 85 L160 108" stroke="currentColor" stroke-width="2.5" fill="none" opacity="0.5" stroke-linecap="round" stroke-linejoin="round"/>
  <!-- Progress bar underneath -->
  <rect x="90" y="175" width="100" height="8" rx="4" stroke="currentColor" stroke-width="1" opacity="0.25" fill="currentColor" fill-opacity="0.05"/>
  <rect x="90" y="175" width="65"  height="8" rx="4" fill="currentColor" opacity="0.3"/>
  <!-- Dots indicating sync -->
  <circle cx="115" cy="195" r="3" fill="currentColor" opacity="0.5"/>
  <circle cx="140" cy="195" r="3" fill="currentColor" opacity="0.3"/>
  <circle cx="165" cy="195" r="3" fill="currentColor" opacity="0.2"/>
</svg>
