<svg xmlns="http://www.w3.org/2000/svg" viewBox="0 0 380 240" fill="none">
  <!-- Window frame -->
  <rect x="2" y="2" width="376" height="236" rx="10" stroke="currentColor" stroke-width="1.5" opacity="0.25"/>
  <!-- Title bar -->
  <rect x="2" y="2" width="376" height="30" rx="10" fill="currentColor" opacity="0.06"/>
  <circle cx="20" cy="17" r="5" fill="currentColor" opacity="0.3"/>
  <circle cx="36" cy="17" r="5" fill="currentColor" opacity="0.25"/>
  <circle cx="52" cy="17" r="5" fill="currentColor" opacity="0.2"/>
  <text x="120" y="21" font-family="monospace" font-size="10" fill="currentColor" opacity="0.3">index.ts — portfolio</text>
  <!-- Line numbers -->
  <g font-family="monospace" font-size="11" fill="currentColor" opacity="0.2" text-anchor="end">
    <text x="42" y="58">1</text><text x="42" y="74">2</text><text x="42" y="90">3</text>
    <text x="42" y="106">4</text><text x="42" y="122">5</text><text x="42" y="138">6</text>
    <text x="42" y="154">7</text><text x="42" y="170">8</text><text x="42" y="186">9</text>
    <text x="42" y="202">10</text><text x="42" y="218">11</text>
  </g>
  <!-- Gutter line -->
  <line x1="50" y1="38" x2="50" y2="236" stroke="currentColor" stroke-width="1" opacity="0.1"/>
  <!-- Syntax-coloured code lines (coloured rects simulating tokens) -->
  <!-- Line 1: import -->
  <rect x="58" y="47" width="44" height="9" rx="2" fill="currentColor" opacity="0.3"/>
  <rect x="108" y="47" width="55" height="9" rx="2" fill="currentColor" opacity="0.2"/>
  <rect x="170" y="47" width="30" height="9" rx="2" fill="currentColor" opacity="0.15"/>
  <!-- Line 2: blank -->
  <!-- Line 3: const -->
  <rect x="58" y="79" width="36" height="9" rx="2" fill="currentColor" opacity="0.3"/>
  <rect x="100" y="79" width="60" height="9" rx="2" fill="currentColor" opacity="0.2"/>
  <rect x="166" y="79" width="8" height="9" rx="2" fill="currentColor" opacity="0.25"/>
  <rect x="180" y="79" width="90" height="9" rx="2" fill="currentColor" opacity="0.15"/>
  <!-- Line 4 -->
  <rect x="58" y="95" width="28" height="9" rx="2" fill="currentColor" opacity="0.25"/>
  <rect x="92" y="95" width="110" height="9" rx="2" fill="currentColor" opacity="0.15"/>
  <!-- Line 5 function -->
  <rect x="58" y="111" width="55" height="9" rx="2" fill="currentColor" opacity="0.3"/>
  <rect x="120" y="111" width="75" height="9" rx="2" fill="currentColor" opacity="0.2"/>
  <rect x="202" y="111" width="12" height="9" rx="2" fill="currentColor" opacity="0.35"/>
  <!-- Line 6 indent -->
  <rect x="78" y="127" width="40" height="9" rx="2" fill="currentColor" opacity="0.2"/>
  <rect x="124" y="127" width="80" height="9" rx="2" fill="currentColor" opacity="0.3"/>
  <rect x="210" y="127" width="50" height="9" rx="2" fill="currentColor" opacity="0.15"/>
  <!-- Line 7 -->
  <rect x="78" y="143" width="60" height="9" rx="2" fill="currentColor" opacity="0.18"/>
  <rect x="144" y="143" width="100" height="9" rx="2" fill="currentColor" opacity="0.12"/>
  <!-- Cursor -->
  <rect x="58" y="161" width="2" height="12" fill="currentColor" opacity="0.7"/>
</svg>
