<svg xmlns="http://www.w3.org/2000/svg" viewBox="0 0 200 260" fill="none">
  <!-- Bottom cylinder -->
  <ellipse cx="100" cy="220" rx="70" ry="18" stroke="currentColor" stroke-width="1.5" opacity="0.3" fill="currentColor" fill-opacity="0.04"/>
  <rect x="30" y="175" width="140" height="45" fill="currentColor" opacity="0.04"/>
  <line x1="30" y1="175" x2="30" y2="220" stroke="currentColor" stroke-width="1.5" opacity="0.3"/>
  <line x1="170" y1="175" x2="170" y2="220" stroke="currentColor" stroke-width="1.5" opacity="0.3"/>
  <ellipse cx="100" cy="175" rx="70" ry="18" stroke="currentColor" stroke-width="1.5" opacity="0.35" fill="currentColor" fill-opacity="0.06"/>
  <!-- Middle cylinder -->
  <rect x="30" y="120" width="140" height="45" fill="currentColor" opacity="0.05"/>
  <line x1="30" y1="120" x2="30" y2="165" stroke="currentColor" stroke-width="1.5" opacity="0.3"/>
  <line x1="170" y1="120" x2="170" y2="165" stroke="currentColor" stroke-width="1.5" opacity="0.3"/>
  <ellipse cx="100" cy="120" rx="70" ry="18" stroke="currentColor" stroke-width="1.5" opacity="0.4" fill="currentColor" fill-opacity="0.07"/>
  <!-- Top cylinder -->
  <rect x="30" y="65" width="140" height="45" fill="currentColor" opacity="0.06"/>
  <line x1="30" y1="65" x2="30" y2="110" stroke="currentColor" stroke-width="1.5" opacity="0.35"/>
  <line x1="170" y1="65" x2="170" y2="110" stroke="currentColor" stroke-width="1.5" opacity="0.35"/>
  <ellipse cx="100" cy="65" rx="70" ry="18" stroke="currentColor" stroke-width="2" opacity="0.45" fill="currentColor" fill-opacity="0.09"/>
  <!-- Data lines inside top -->
  <line x1="55" y1="82" x2="145" y2="82" stroke="currentColor" stroke-width="1" opacity="0.2"/>
  <line x1="55" y1="91" x2="120" y2="91" stroke="currentColor" stroke-width="1" opacity="0.15"/>
  <line x1="55" y1="100" x2="130" y2="100" stroke="currentColor" stroke-width="1" opacity="0.12"/>
</svg>
