<svg xmlns="http://www.w3.org/2000/svg" viewBox="0 0 500 500" fill="none">
  <path d="M250 80 C350 60 440 130 450 230 C460 330 390 420 290 440 C190 460 80 390 60 290 C40 190 100 80 200 70 C220 68 235 82 250 80Z" fill="url(#ml1)" opacity="0.5"/>
  <path d="M230 100 C320 85 400 150 410 240 C420 320 360 400 275 415 C190 430 100 370 90 285 C80 200 130 105 220 96Z" fill="url(#ml2)" opacity="0.4"/>
  <path d="M255 130 C330 118 390 175 395 250 C400 320 350 390 275 398 C200 406 130 355 125 280 C120 205 165 138 240 130Z" fill="url(#ml3)" opacity="0.3"/>
  <defs>
    <radialGradient id="ml1" cx="35%" cy="35%" r="65%">
      <stop offset="0%" stop-color="#818cf8"/>
      <stop offset="100%" stop-color="#4f46e5" stop-opacity="0.1"/>
    </radialGradient>
    <radialGradient id="ml2" cx="50%" cy="45%" r="55%">
      <stop offset="0%" stop-color="#60a5fa"/>
      <stop offset="100%" stop-color="#2563eb" stop-opacity="0.05"/>
    </radialGradient>
    <radialGradient id="ml3" cx="55%" cy="50%" r="50%">
      <stop offset="0%" stop-color="#a78bfa"/>
      <stop offset="100%" stop-color="#7c3aed" stop-opacity="0"/>
    </radialGradient>
  </defs>
</svg>
