<svg xmlns="http://www.w3.org/2000/svg" viewBox="0 0 300 300" fill="none">
  <g transform="translate(150,150)" fill="currentColor">
    <circle cx="0"    cy="-120" r="3" opacity="0.6"/>
    <circle cx="57"   cy="-104" r="2.5" opacity="0.5"/>
    <circle cx="104"  cy="-57"  r="2" opacity="0.45"/>
    <circle cx="120"  cy="0"    r="3" opacity="0.6"/>
    <circle cx="104"  cy="57"   r="2.5" opacity="0.5"/>
    <circle cx="57"   cy="104"  r="2" opacity="0.45"/>
    <circle cx="0"    cy="120"  r="3" opacity="0.6"/>
    <circle cx="-57"  cy="104"  r="2.5" opacity="0.5"/>
    <circle cx="-104" cy="57"   r="2" opacity="0.45"/>
    <circle cx="-120" cy="0"    r="3" opacity="0.6"/>
    <circle cx="-104" cy="-57"  r="2.5" opacity="0.5"/>
    <circle cx="-57"  cy="-104" r="2" opacity="0.45"/>
    <circle cx="0"    cy="-70"  r="2" opacity="0.35"/>
    <circle cx="50"   cy="-50"  r="1.5" opacity="0.3"/>
    <circle cx="70"   cy="0"    r="2" opacity="0.35"/>
    <circle cx="50"   cy="50"   r="1.5" opacity="0.3"/>
    <circle cx="0"    cy="70"   r="2" opacity="0.35"/>
    <circle cx="-50"  cy="50"   r="1.5" opacity="0.3"/>
    <circle cx="-70"  cy="0"    r="2" opacity="0.35"/>
    <circle cx="-50"  cy="-50"  r="1.5" opacity="0.3"/>
    <circle cx="0"    cy="0"    r="5" opacity="0.7"/>
  </g>
</svg>
