<svg xmlns="http://www.w3.org/2000/svg" viewBox="0 0 400 400" fill="none">
  <g stroke="currentColor" stroke-width="1" opacity="0.15">
    <polygon points="200,20 350,130 290,300 110,300 50,130" fill="currentColor" fill-opacity="0.03"/>
    <polygon points="200,60 310,145 270,270 130,270 90,145" fill="currentColor" fill-opacity="0.03"/>
    <polygon points="200,20 350,130 200,200" fill="currentColor" fill-opacity="0.04"/>
    <polygon points="200,20 50,130 200,200" fill="currentColor" fill-opacity="0.02"/>
    <polygon points="350,130 290,300 200,200" fill="currentColor" fill-opacity="0.04"/>
    <polygon points="50,130 110,300 200,200" fill="currentColor" fill-opacity="0.03"/>
    <polygon points="110,300 290,300 200,200" fill="currentColor" fill-opacity="0.05"/>
    <line x1="200" y1="20"  x2="200" y2="200"/>
    <line x1="350" y1="130" x2="200" y2="200"/>
    <line x1="290" y1="300" x2="200" y2="200"/>
    <line x1="110" y1="300" x2="200" y2="200"/>
    <line x1="50"  y1="130" x2="200" y2="200"/>
  </g>
</svg>
