<svg xmlns="http://www.w3.org/2000/svg" viewBox="0 0 400 300" fill="none">
  <g stroke="currentColor" stroke-width="1.5" opacity="0.25">
    <line x1="20" y1="60" x2="100" y2="60"/><line x1="100" y1="60" x2="100" y2="20"/><line x1="100" y1="20" x2="200" y2="20"/>
    <circle cx="100" cy="60" r="4" fill="currentColor" opacity="0.5"/>
    <line x1="200" y1="20" x2="200" y2="80"/><line x1="200" y1="80" x2="320" y2="80"/>
    <circle cx="200" cy="20" r="4" fill="currentColor" opacity="0.5"/>
    <line x1="320" y1="80" x2="380" y2="80"/>
    <circle cx="320" cy="80" r="4" fill="currentColor" opacity="0.5"/>
    <line x1="50" y1="140" x2="150" y2="140"/><line x1="150" y1="140" x2="150" y2="100"/><line x1="150" y1="100" x2="260" y2="100"/>
    <circle cx="150" cy="140" r="4" fill="currentColor" opacity="0.5"/>
    <line x1="260" y1="100" x2="260" y2="160"/><line x1="260" y1="160" x2="380" y2="160"/>
    <circle cx="260" cy="100" r="4" fill="currentColor" opacity="0.5"/>
    <line x1="20" y1="220" x2="80" y2="220"/><line x1="80" y1="220" x2="80" y2="180"/><line x1="80" y1="180" x2="180" y2="180"/>
    <circle cx="80" cy="220" r="4" fill="currentColor" opacity="0.5"/>
    <line x1="180" y1="180" x2="300" y2="180"/><line x1="300" y1="180" x2="300" y2="240"/><line x1="300" y1="240" x2="380" y2="240"/>
    <circle cx="300" cy="180" r="4" fill="currentColor" opacity="0.5"/>
    <line x1="120" y1="270" x2="220" y2="270"/><line x1="220" y1="270" x2="220" y2="240"/>
    <circle cx="220" cy="270" r="4" fill="currentColor" opacity="0.5"/>
  </g>
</svg>
