<svg xmlns="http://www.w3.org/2000/svg" viewBox="0 0 300 300" fill="currentColor">
  <circle cx="60"  cy="80"  r="3.5" opacity="0.5"/>
  <circle cx="90"  cy="50"  r="2"   opacity="0.35"/>
  <circle cx="120" cy="90"  r="5"   opacity="0.4"/>
  <circle cx="150" cy="60"  r="2.5" opacity="0.45"/>
  <circle cx="75"  cy="120" r="4"   opacity="0.3"/>
  <circle cx="110" cy="130" r="2"   opacity="0.25"/>
  <circle cx="45"  cy="55"  r="2"   opacity="0.3"/>
  <circle cx="200" cy="70"  r="3"   opacity="0.4"/>
  <circle cx="230" cy="100" r="5"   opacity="0.35"/>
  <circle cx="210" cy="130" r="2.5" opacity="0.3"/>
  <circle cx="250" cy="60"  r="2"   opacity="0.3"/>
  <circle cx="180" cy="110" r="4"   opacity="0.25"/>
  <circle cx="140" cy="160" r="3"   opacity="0.4"/>
  <circle cx="170" cy="190" r="5"   opacity="0.35"/>
  <circle cx="200" cy="210" r="2.5" opacity="0.45"/>
  <circle cx="130" cy="200" r="2"   opacity="0.3"/>
  <circle cx="100" cy="220" r="4"   opacity="0.3"/>
  <circle cx="240" cy="180" r="3"   opacity="0.35"/>
  <circle cx="260" cy="210" r="2"   opacity="0.25"/>
  <circle cx="50"  cy="200" r="3.5" opacity="0.35"/>
  <circle cx="70"  cy="240" r="2"   opacity="0.25"/>
  <circle cx="30"  cy="150" r="2.5" opacity="0.3"/>
</svg>
