<svg xmlns="http://www.w3.org/2000/svg" viewBox="0 0 260 280" fill="none">
  <g font-family="monospace" font-size="12" fill="currentColor">
    <!-- Root -->
    <text x="20" y="25" opacity="0.55">📁 portfolio/</text>
    <!-- Branch lines -->
    <line x1="30" y1="32" x2="30" y2="250" stroke="currentColor" stroke-width="1" opacity="0.2"/>
    <!-- src -->
    <line x1="30" y1="55" x2="50" y2="55" stroke="currentColor" stroke-width="1" opacity="0.2"/>
    <text x="54" y="60" opacity="0.45">📁 src/</text>
    <line x1="50" y1="65" x2="50" y2="130" stroke="currentColor" stroke-width="1" opacity="0.18"/>
    <line x1="50" y1="85"  x2="70" y2="85"  stroke="currentColor" stroke-width="1" opacity="0.18"/>
    <line x1="50" y1="105" x2="70" y2="105" stroke="currentColor" stroke-width="1" opacity="0.18"/>
    <line x1="50" y1="125" x2="70" y2="125" stroke="currentColor" stroke-width="1" opacity="0.18"/>
    <text x="74" y="90"  opacity="0.35">📄 index.ts</text>
    <text x="74" y="110" opacity="0.35">📄 app.tsx</text>
    <text x="74" y="130" opacity="0.35">📁 components/</text>
    <!-- docs -->
    <line x1="30" y1="158" x2="50" y2="158" stroke="currentColor" stroke-width="1" opacity="0.2"/>
    <text x="54" y="163" opacity="0.4">📁 docs/</text>
    <line x1="50" y1="168" x2="50" y2="200" stroke="currentColor" stroke-width="1" opacity="0.15"/>
    <line x1="50" y1="185" x2="70" y2="185" stroke="currentColor" stroke-width="1" opacity="0.15"/>
    <line x1="50" y1="205" x2="70" y2="205" stroke="currentColor" stroke-width="1" opacity="0.15"/>
    <text x="74" y="190" opacity="0.3">📄 index.html</text>
    <text x="74" y="210" opacity="0.3">📁 assets/</text>
    <!-- Config files -->
    <line x1="30" y1="235" x2="50" y2="235" stroke="currentColor" stroke-width="1" opacity="0.2"/>
    <line x1="30" y1="255" x2="50" y2="255" stroke="currentColor" stroke-width="1" opacity="0.2"/>
    <text x="54" y="240" opacity="0.35">📄 package.json</text>
    <text x="54" y="260" opacity="0.3">📄 tsconfig.json</text>
  </g>
</svg>
