<svg xmlns="http://www.w3.org/2000/svg" viewBox="0 0 360 280" fill="none">
  <!-- Edges -->
  <g stroke="currentColor" stroke-width="1" opacity="0.2">
    <line x1="180" y1="50"  x2="80"  y2="140"/>
    <line x1="180" y1="50"  x2="280" y2="130"/>
    <line x1="180" y1="50"  x2="180" y2="200"/>
    <line x1="80"  y1="140" x2="40"  y2="240"/>
    <line x1="80"  y1="140" x2="180" y2="200"/>
    <line x1="80"  y1="140" x2="160" y2="240"/>
    <line x1="280" y1="130" x2="320" y2="230"/>
    <line x1="280" y1="130" x2="180" y2="200"/>
    <line x1="280" y1="130" x2="220" y2="240"/>
    <line x1="180" y1="200" x2="160" y2="240"/>
    <line x1="180" y1="200" x2="220" y2="240"/>
  </g>
  <!-- Nodes -->
  <circle cx="180" cy="50"  r="14" stroke="currentColor" stroke-width="2" fill="currentColor" fill-opacity="0.15" opacity="0.7"/>
  <circle cx="80"  cy="140" r="11" stroke="currentColor" stroke-width="1.5" fill="currentColor" fill-opacity="0.1" opacity="0.55"/>
  <circle cx="280" cy="130" r="11" stroke="currentColor" stroke-width="1.5" fill="currentColor" fill-opacity="0.1" opacity="0.55"/>
  <circle cx="180" cy="200" r="10" stroke="currentColor" stroke-width="1.5" fill="currentColor" fill-opacity="0.1" opacity="0.5"/>
  <circle cx="40"  cy="240" r="7"  stroke="currentColor" stroke-width="1" fill="currentColor" fill-opacity="0.08" opacity="0.4"/>
  <circle cx="160" cy="240" r="7"  stroke="currentColor" stroke-width="1" fill="currentColor" fill-opacity="0.08" opacity="0.4"/>
  <circle cx="220" cy="240" r="7"  stroke="currentColor" stroke-width="1" fill="currentColor" fill-opacity="0.08" opacity="0.4"/>
  <circle cx="320" cy="230" r="7"  stroke="currentColor" stroke-width="1" fill="currentColor" fill-opacity="0.08" opacity="0.4"/>
  <!-- Node labels -->
  <text x="180" y="54"  font-family="monospace" font-size="9" fill="currentColor" opacity="0.5" text-anchor="middle">srv</text>
  <text x="80"  y="144" font-family="monospace" font-size="8" fill="currentColor" opacity="0.4" text-anchor="middle">db</text>
  <text x="280" y="134" font-family="monospace" font-size="8" fill="currentColor" opacity="0.4" text-anchor="middle">api</text>
  <text x="180" y="204" font-family="monospace" font-size="8" fill="currentColor" opacity="0.4" text-anchor="middle">cdn</text>
</svg>
