<svg xmlns="http://www.w3.org/2000/svg" viewBox="0 0 320 240" fill="none">
  <!-- Central package -->
  <rect x="110" y="100" width="100" height="40" rx="8" stroke="currentColor" stroke-width="2" fill="currentColor" fill-opacity="0.1" opacity="0.6"/>
  <text x="160" y="125" font-family="monospace" font-size="10" fill="currentColor" opacity="0.6" text-anchor="middle">portfolio@1.0</text>
  <!-- Dep edges -->
  <g stroke="currentColor" stroke-width="1" opacity="0.25" stroke-dasharray="4 3">
    <line x1="110" y1="115" x2="75"  y2="60"/>
    <line x1="160" y1="100" x2="160" y2="62"/>
    <line x1="210" y1="115" x2="248" y2="60"/>
    <line x1="110" y1="125" x2="68"  y2="175"/>
    <line x1="210" y1="125" x2="252" y2="175"/>
    <line x1="160" y1="140" x2="160" y2="178"/>
  </g>
  <!-- Dep packages -->
  <g stroke="currentColor" stroke-width="1.5" fill="currentColor" fill-opacity="0.07" opacity="0.45" font-family="monospace" font-size="9">
    <rect x="30"  y="35" width="90" height="32" rx="6"/><text x="75"  y="56" fill="currentColor" opacity="0.5" text-anchor="middle">react@19</text>
    <rect x="115" y="30" width="90" height="32" rx="6"/><text x="160" y="51" fill="currentColor" opacity="0.5" text-anchor="middle">typescript@5</text>
    <rect x="205" y="35" width="90" height="32" rx="6"/><text x="250" y="56" fill="currentColor" opacity="0.5" text-anchor="middle">vite@6</text>
    <rect x="22"  y="158" width="90" height="32" rx="6"/><text x="67" y="179" fill="currentColor" opacity="0.4" text-anchor="middle">tailwind@4</text>
    <rect x="115" y="168" width="90" height="32" rx="6"/><text x="160" y="189" fill="currentColor" opacity="0.4" text-anchor="middle">eslint@9</text>
    <rect x="208" y="158" width="90" height="32" rx="6"/><text x="253" y="179" fill="currentColor" opacity="0.4" text-anchor="middle">vitest@3</text>
  </g>
</svg>
