<svg xmlns="http://www.w3.org/2000/svg" viewBox="0 0 300 300" fill="none">
  <g transform="translate(150,150)" stroke="currentColor" opacity="0.2">
    <line x1="0" y1="-140" x2="0" y2="-50" stroke-width="1.5"/>
    <line x1="0" y1="50" x2="0" y2="140" stroke-width="1.5"/>
    <line x1="-140" y1="0" x2="-50" y2="0" stroke-width="1.5"/>
    <line x1="50" y1="0" x2="140" y2="0" stroke-width="1.5"/>
    <line x1="-99" y1="-99" x2="-35" y2="-35" stroke-width="1"/>
    <line x1="35" y1="35" x2="99" y2="99" stroke-width="1"/>
    <line x1="99" y1="-99" x2="35" y2="-35" stroke-width="1"/>
    <line x1="-35" y1="35" x2="-99" y2="99" stroke-width="1"/>
    <line x1="-37" y1="-130" x2="-13" y2="-46" stroke-width="0.8"/>
    <line x1="13" y1="46" x2="37" y2="130" stroke-width="0.8"/>
    <line x1="37" y1="-130" x2="13" y2="-46" stroke-width="0.8"/>
    <line x1="-13" y1="46" x2="-37" y2="130" stroke-width="0.8"/>
    <line x1="-130" y1="-37" x2="-46" y2="-13" stroke-width="0.8"/>
    <line x1="46" y1="13" x2="130" y2="37" stroke-width="0.8"/>
    <line x1="130" y1="-37" x2="46" y2="-13" stroke-width="0.8"/>
    <line x1="-46" y1="13" x2="-130" y2="37" stroke-width="0.8"/>
  </g>
  <circle cx="150" cy="150" r="12" fill="currentColor" opacity="0.15"/>
  <circle cx="150" cy="150" r="5" fill="currentColor" opacity="0.3"/>
</svg>
